<svg xmlns="http://www.w3.org/2000/svg" viewBox="0 0 180 180" role="img" aria-label="Cities illustration">
  <defs>
    <linearGradient id="mapFold" x1="42" y1="42" x2="138" y2="138" gradientUnits="userSpaceOnUse">
      <stop offset="0" stop-color="#EDE9FE"/>
      <stop offset="1" stop-color="#8B5CF6"/>
    </linearGradient>
    <linearGradient id="mapFront" x1="54" y1="52" x2="128" y2="144" gradientUnits="userSpaceOnUse">
      <stop offset="0" stop-color="#F8FAFC"/>
      <stop offset="1" stop-color="#C4B5FD"/>
    </linearGradient>
    <linearGradient id="compassGold" x1="116" y1="28" x2="148" y2="60" gradientUnits="userSpaceOnUse">
      <stop offset="0" stop-color="#FEF3C7"/>
      <stop offset="1" stop-color="#F59E0B"/>
    </linearGradient>
    <filter id="mapShadow" x="0" y="0" width="180" height="180" filterUnits="userSpaceOnUse">
      <feGaussianBlur in="SourceAlpha" stdDeviation="6" result="blur"/>
      <feOffset dy="10"/>
      <feColorMatrix values="0 0 0 0 0.21 0 0 0 0 0.11 0 0 0 0 0.36 0 0 0 0.16 0"/>
      <feBlend in2="SourceGraphic" mode="normal"/>
    </filter>
  </defs>

  <ellipse cx="88" cy="154" rx="56" ry="10" fill="#8B5CF6" fill-opacity="0.14"/>

  <g filter="url(#mapShadow)">
    <path d="M46 72l42-22 46 14-42 22-46-14Z" fill="url(#mapFold)"/>
    <path d="M46 72v52l46 14V86L46 72Z" fill="#A78BFA"/>
    <path d="M134 64v52l-46 22V86l46-22Z" fill="url(#mapFront)"/>
    <path d="M46 72l42-22 46 14-42 22-46-14Z" stroke="#F5F3FF" stroke-width="2"/>

    <path d="M58 90h20M58 102h20M58 114h20" stroke="#7C3AED" stroke-width="3" stroke-linecap="round" opacity="0.9"/>
    <path d="M100 80h16M100 92h16M100 104h16" stroke="#7C3AED" stroke-width="3" stroke-linecap="round" opacity="0.7"/>

    <circle cx="110" cy="118" r="16" fill="#FFF7ED"/>
    <circle cx="110" cy="118" r="10" fill="url(#compassGold)"/>
    <path d="M110 110l4 8-8 4 4-12Z" fill="#7C2D12"/>
    <path d="M110 106v6M110 124v6M104 118h6M116 118h6" stroke="#7C2D12" stroke-width="2.5" stroke-linecap="round"/>

    <circle cx="130" cy="44" r="11" fill="#FFF7ED"/>
    <path d="M130 38l2 4 4 .6-2.9 2.8.7 4-3.8-2-3.8 2 .7-4-2.9-2.8 4-.6 2-4Z" fill="#8B5CF6"/>
  </g>
</svg>
