<svg xmlns="http://www.w3.org/2000/svg" viewBox="0 0 180 180" role="img" aria-label="Hotels illustration">
  <defs>
    <linearGradient id="hotelFront" x1="40" y1="36" x2="140" y2="148" gradientUnits="userSpaceOnUse">
      <stop offset="0" stop-color="#FFF2D6"/>
      <stop offset="0.45" stop-color="#FDBA74"/>
      <stop offset="1" stop-color="#EA580C"/>
    </linearGradient>
    <linearGradient id="hotelSide" x1="96" y1="58" x2="158" y2="150" gradientUnits="userSpaceOnUse">
      <stop offset="0" stop-color="#C2410C"/>
      <stop offset="1" stop-color="#7C2D12"/>
    </linearGradient>
    <linearGradient id="hotelRoof" x1="44" y1="26" x2="130" y2="84" gradientUnits="userSpaceOnUse">
      <stop offset="0" stop-color="#FEF3C7"/>
      <stop offset="1" stop-color="#F59E0B"/>
    </linearGradient>
    <filter id="hotelShadow" x="0" y="0" width="180" height="180" filterUnits="userSpaceOnUse">
      <feGaussianBlur in="SourceAlpha" stdDeviation="6" result="blur"/>
      <feOffset dy="10"/>
      <feColorMatrix values="0 0 0 0 0.23 0 0 0 0 0.12 0 0 0 0 0.03 0 0 0 0.18 0"/>
      <feBlend in2="SourceGraphic" mode="normal"/>
    </filter>
  </defs>

  <ellipse cx="88" cy="154" rx="56" ry="10" fill="#F59E0B" fill-opacity="0.16"/>

  <g filter="url(#hotelShadow)">
    <path d="M44 58L92 34L136 58L88 82L44 58Z" fill="url(#hotelRoof)"/>
    <path d="M44 58V132L88 156V82L44 58Z" fill="url(#hotelFront)"/>
    <path d="M136 58V132L88 156V82L136 58Z" fill="url(#hotelSide)"/>
    <path d="M44 58L92 34L136 58L88 82L44 58Z" stroke="#FFF7ED" stroke-width="2"/>

    <rect x="57" y="70" width="16" height="16" rx="3" fill="#FFF7ED"/>
    <rect x="78" y="70" width="16" height="16" rx="3" fill="#FFF7ED"/>
    <rect x="57" y="92" width="16" height="16" rx="3" fill="#FFF7ED"/>
    <rect x="78" y="92" width="16" height="16" rx="3" fill="#FFF7ED"/>
    <rect x="57" y="114" width="16" height="16" rx="3" fill="#FFF7ED"/>
    <rect x="78" y="114" width="16" height="16" rx="3" fill="#FFF7ED"/>

    <rect x="102" y="80" width="16" height="50" rx="6" fill="#7C2D12"/>
    <rect x="106" y="88" width="8" height="8" rx="2" fill="#FFF7ED"/>
    <rect x="106" y="100" width="8" height="8" rx="2" fill="#FFF7ED"/>
    <rect x="106" y="112" width="8" height="8" rx="2" fill="#FFF7ED"/>

    <circle cx="124" cy="46" r="10" fill="#FFF7ED"/>
    <path d="M124 41l2.2 4.6 5.1.7-3.7 3.6.9 5.1-4.5-2.4-4.5 2.4.9-5.1-3.7-3.6 5.1-.7L124 41Z" fill="#F59E0B"/>
  </g>
</svg>
