<svg xmlns="http://www.w3.org/2000/svg" viewBox="0 0 64 64" fill="none">
  <rect width="64" height="64" rx="14" fill="#0f2347"/>
  <path d="M14 52V24L32 13L50 24V52" fill="#1a3a6b" fill-opacity="0.22" stroke="white" stroke-width="2" stroke-linejoin="round"/>
  <rect x="21" y="29" width="6" height="6" rx="1" fill="white"/>
  <rect x="37" y="29" width="6" height="6" rx="1" fill="white"/>
  <path d="M28 52V44C28 41.8 29.8 40 32 40C34.2 40 36 41.8 36 44V52" stroke="white" stroke-width="2.5" stroke-linecap="round"/>
  <path d="M32 8L33.8 11.8L38 12.4L35 15.3L35.7 19.5L32 17.6L28.3 19.5L29 15.3L26 12.4L30.2 11.8L32 8Z" fill="#f59e0b"/>
  <circle cx="48.5" cy="46.5" r="5.5" stroke="#f59e0b" stroke-width="2"/>
  <path d="M52.8 50.8L57 55" stroke="#f59e0b" stroke-width="2" stroke-linecap="round"/>
</svg>
